<mxfile host="app.diagrams.net" agent="Mozilla/5.0 (Windows NT 10.0; Win64; x64) AppleWebKit/537.36 (KHTML, like Gecko) Chrome/134.0.0.0 Safari/537.36" version="26.2.9">
  <diagram name="Page-1" id="2cc2dc42-3aac-f2a9-1cec-7a8b7cbee084">
    <mxGraphModel dx="1392" dy="4129" grid="1" gridSize="10" guides="1" tooltips="1" connect="1" arrows="1" fold="1" page="1" pageScale="1" pageWidth="4681" pageHeight="3300" background="#ffffff" math="0" shadow="0">
      <root>
        <mxCell id="0" />
        <mxCell id="1" parent="0" />
        <mxCell id="qmhfRPb0Hw7Yd657BUEG-1" value="" style="strokeWidth=1;shadow=0;dashed=0;align=left;html=1;shape=mxgraph.mockup.containers.browserWindow;rSize=0;strokeColor=#666666;strokeColor2=#008cff;strokeColor3=#c4c4c4;mainText=,;recursiveResize=0;" parent="1" vertex="1">
          <mxGeometry x="40" y="40" width="1000" height="640" as="geometry" />
        </mxCell>
        <mxCell id="qmhfRPb0Hw7Yd657BUEG-2" value="Home" style="strokeWidth=1;shadow=0;dashed=0;align=center;html=1;shape=mxgraph.mockup.containers.anchor;fontSize=17;fontColor=#666666;align=left;whiteSpace=wrap;" parent="qmhfRPb0Hw7Yd657BUEG-1" vertex="1">
          <mxGeometry x="60" y="12" width="110" height="26" as="geometry" />
        </mxCell>
        <mxCell id="qmhfRPb0Hw7Yd657BUEG-3" value="https://rehabrain.eu/#home" style="strokeWidth=1;shadow=0;dashed=0;align=center;html=1;shape=mxgraph.mockup.containers.anchor;rSize=0;fontSize=17;fontColor=#666666;align=left;" parent="qmhfRPb0Hw7Yd657BUEG-1" vertex="1">
          <mxGeometry x="130" y="60" width="250" height="26" as="geometry" />
        </mxCell>
        <mxCell id="pK-hUQg6xLrgGSAAC2_B-1" value="" style="verticalLabelPosition=bottom;shadow=0;dashed=0;align=center;html=1;verticalAlign=top;strokeWidth=1;shape=mxgraph.mockup.graphics.simpleIcon;strokeColor=#999999;" vertex="1" parent="qmhfRPb0Hw7Yd657BUEG-1">
          <mxGeometry y="110" width="50" height="50" as="geometry" />
        </mxCell>
        <mxCell id="pK-hUQg6xLrgGSAAC2_B-2" value="&lt;b style=&quot;&quot;&gt;&lt;font style=&quot;font-size: 30px;&quot;&gt;RehaBrain&lt;/font&gt;&lt;/b&gt;" style="text;html=1;align=left;verticalAlign=middle;whiteSpace=wrap;rounded=0;" vertex="1" parent="qmhfRPb0Hw7Yd657BUEG-1">
          <mxGeometry x="70" y="110" width="150" height="50" as="geometry" />
        </mxCell>
        <mxCell id="pK-hUQg6xLrgGSAAC2_B-6" value="" style="verticalLabelPosition=bottom;shadow=0;dashed=0;align=center;html=1;verticalAlign=top;strokeWidth=1;shape=mxgraph.mockup.markup.line;strokeColor=#999999;" vertex="1" parent="qmhfRPb0Hw7Yd657BUEG-1">
          <mxGeometry y="150" width="1000" height="20" as="geometry" />
        </mxCell>
        <mxCell id="pK-hUQg6xLrgGSAAC2_B-7" value="" style="strokeWidth=1;shadow=0;dashed=0;align=center;html=1;shape=mxgraph.mockup.containers.rrect;rSize=0;strokeColor=#666666;fontColor=#666666;fontSize=17;verticalAlign=top;whiteSpace=wrap;fillColor=#ffffff;spacingTop=32;" vertex="1" parent="qmhfRPb0Hw7Yd657BUEG-1">
          <mxGeometry x="170" y="260" width="450" height="250" as="geometry" />
        </mxCell>
        <mxCell id="pK-hUQg6xLrgGSAAC2_B-12" value="Attività 1" style="strokeWidth=1;shadow=0;dashed=0;align=center;html=1;shape=mxgraph.mockup.text.textBox;fontColor=#666666;align=left;fontSize=17;spacingLeft=4;spacingTop=-3;whiteSpace=wrap;strokeColor=#666666;mainText=" vertex="1" parent="pK-hUQg6xLrgGSAAC2_B-7">
          <mxGeometry x="20" y="20" width="220" height="30" as="geometry" />
        </mxCell>
        <mxCell id="pK-hUQg6xLrgGSAAC2_B-24" value="" style="shape=cross;whiteSpace=wrap;html=1;" vertex="1" parent="pK-hUQg6xLrgGSAAC2_B-7">
          <mxGeometry x="390" y="60" width="30" height="30" as="geometry" />
        </mxCell>
        <mxCell id="pK-hUQg6xLrgGSAAC2_B-176" value="" style="verticalLabelPosition=bottom;shadow=0;dashed=0;align=center;html=1;verticalAlign=top;strokeWidth=1;shape=mxgraph.mockup.misc.help_icon;fontFamily=Helvetica;fontSize=11;fontColor=default;labelBackgroundColor=default;" vertex="1" parent="pK-hUQg6xLrgGSAAC2_B-7">
          <mxGeometry x="214" y="24" width="22" height="22" as="geometry" />
        </mxCell>
        <mxCell id="pK-hUQg6xLrgGSAAC2_B-182" value="" style="shape=cross;whiteSpace=wrap;html=1;" vertex="1" parent="pK-hUQg6xLrgGSAAC2_B-7">
          <mxGeometry x="390" y="100" width="30" height="30" as="geometry" />
        </mxCell>
        <mxCell id="pK-hUQg6xLrgGSAAC2_B-183" value="" style="shape=cross;whiteSpace=wrap;html=1;" vertex="1" parent="pK-hUQg6xLrgGSAAC2_B-7">
          <mxGeometry x="390" y="140" width="30" height="30" as="geometry" />
        </mxCell>
        <mxCell id="pK-hUQg6xLrgGSAAC2_B-184" value="" style="shape=cross;whiteSpace=wrap;html=1;" vertex="1" parent="pK-hUQg6xLrgGSAAC2_B-7">
          <mxGeometry x="390" y="20" width="30" height="30" as="geometry" />
        </mxCell>
        <mxCell id="pK-hUQg6xLrgGSAAC2_B-246" value="" style="shape=cross;whiteSpace=wrap;html=1;" vertex="1" parent="pK-hUQg6xLrgGSAAC2_B-7">
          <mxGeometry x="390" y="180" width="30" height="30" as="geometry" />
        </mxCell>
        <mxCell id="pK-hUQg6xLrgGSAAC2_B-249" value="Bassa" style="strokeWidth=1;shadow=0;dashed=0;align=center;html=1;shape=mxgraph.mockup.forms.comboBox;strokeColor=#999999;fillColor=#ddeeff;align=left;fillColor2=#aaddff;mainText=;fontColor=#666666;fontSize=17;spacingLeft=3;fontFamily=Helvetica;labelBackgroundColor=default;" vertex="1" parent="pK-hUQg6xLrgGSAAC2_B-7">
          <mxGeometry x="250" y="20" width="130" height="30" as="geometry" />
        </mxCell>
        <mxCell id="pK-hUQg6xLrgGSAAC2_B-250" value="Attività 2" style="strokeWidth=1;shadow=0;dashed=0;align=center;html=1;shape=mxgraph.mockup.text.textBox;fontColor=#666666;align=left;fontSize=17;spacingLeft=4;spacingTop=-3;whiteSpace=wrap;strokeColor=#666666;mainText=" vertex="1" parent="pK-hUQg6xLrgGSAAC2_B-7">
          <mxGeometry x="20" y="60" width="220" height="30" as="geometry" />
        </mxCell>
        <mxCell id="pK-hUQg6xLrgGSAAC2_B-251" value="" style="verticalLabelPosition=bottom;shadow=0;dashed=0;align=center;html=1;verticalAlign=top;strokeWidth=1;shape=mxgraph.mockup.misc.help_icon;fontFamily=Helvetica;fontSize=11;fontColor=default;labelBackgroundColor=default;" vertex="1" parent="pK-hUQg6xLrgGSAAC2_B-7">
          <mxGeometry x="214" y="64" width="22" height="22" as="geometry" />
        </mxCell>
        <mxCell id="pK-hUQg6xLrgGSAAC2_B-252" value="Media" style="strokeWidth=1;shadow=0;dashed=0;align=center;html=1;shape=mxgraph.mockup.forms.comboBox;strokeColor=#999999;fillColor=#ddeeff;align=left;fillColor2=#aaddff;mainText=;fontColor=#666666;fontSize=17;spacingLeft=3;fontFamily=Helvetica;labelBackgroundColor=default;" vertex="1" parent="pK-hUQg6xLrgGSAAC2_B-7">
          <mxGeometry x="250" y="60" width="130" height="30" as="geometry" />
        </mxCell>
        <mxCell id="pK-hUQg6xLrgGSAAC2_B-253" value="Attività 3" style="strokeWidth=1;shadow=0;dashed=0;align=center;html=1;shape=mxgraph.mockup.text.textBox;fontColor=#666666;align=left;fontSize=17;spacingLeft=4;spacingTop=-3;whiteSpace=wrap;strokeColor=#666666;mainText=" vertex="1" parent="pK-hUQg6xLrgGSAAC2_B-7">
          <mxGeometry x="20" y="100" width="220" height="30" as="geometry" />
        </mxCell>
        <mxCell id="pK-hUQg6xLrgGSAAC2_B-254" value="" style="verticalLabelPosition=bottom;shadow=0;dashed=0;align=center;html=1;verticalAlign=top;strokeWidth=1;shape=mxgraph.mockup.misc.help_icon;fontFamily=Helvetica;fontSize=11;fontColor=default;labelBackgroundColor=default;" vertex="1" parent="pK-hUQg6xLrgGSAAC2_B-7">
          <mxGeometry x="214" y="104" width="22" height="22" as="geometry" />
        </mxCell>
        <mxCell id="pK-hUQg6xLrgGSAAC2_B-255" value="Bassa" style="strokeWidth=1;shadow=0;dashed=0;align=center;html=1;shape=mxgraph.mockup.forms.comboBox;strokeColor=#999999;fillColor=#ddeeff;align=left;fillColor2=#aaddff;mainText=;fontColor=#666666;fontSize=17;spacingLeft=3;fontFamily=Helvetica;labelBackgroundColor=default;" vertex="1" parent="pK-hUQg6xLrgGSAAC2_B-7">
          <mxGeometry x="250" y="100" width="130" height="30" as="geometry" />
        </mxCell>
        <mxCell id="pK-hUQg6xLrgGSAAC2_B-256" value="Attività 4" style="strokeWidth=1;shadow=0;dashed=0;align=center;html=1;shape=mxgraph.mockup.text.textBox;fontColor=#666666;align=left;fontSize=17;spacingLeft=4;spacingTop=-3;whiteSpace=wrap;strokeColor=#666666;mainText=" vertex="1" parent="pK-hUQg6xLrgGSAAC2_B-7">
          <mxGeometry x="20" y="140" width="220" height="30" as="geometry" />
        </mxCell>
        <mxCell id="pK-hUQg6xLrgGSAAC2_B-257" value="" style="verticalLabelPosition=bottom;shadow=0;dashed=0;align=center;html=1;verticalAlign=top;strokeWidth=1;shape=mxgraph.mockup.misc.help_icon;fontFamily=Helvetica;fontSize=11;fontColor=default;labelBackgroundColor=default;" vertex="1" parent="pK-hUQg6xLrgGSAAC2_B-7">
          <mxGeometry x="214" y="144" width="22" height="22" as="geometry" />
        </mxCell>
        <mxCell id="pK-hUQg6xLrgGSAAC2_B-258" value="Alta" style="strokeWidth=1;shadow=0;dashed=0;align=center;html=1;shape=mxgraph.mockup.forms.comboBox;strokeColor=#999999;fillColor=#ddeeff;align=left;fillColor2=#aaddff;mainText=;fontColor=#666666;fontSize=17;spacingLeft=3;fontFamily=Helvetica;labelBackgroundColor=default;" vertex="1" parent="pK-hUQg6xLrgGSAAC2_B-7">
          <mxGeometry x="250" y="140" width="130" height="30" as="geometry" />
        </mxCell>
        <mxCell id="pK-hUQg6xLrgGSAAC2_B-259" value="Attività 5" style="strokeWidth=1;shadow=0;dashed=0;align=center;html=1;shape=mxgraph.mockup.text.textBox;fontColor=#666666;align=left;fontSize=17;spacingLeft=4;spacingTop=-3;whiteSpace=wrap;strokeColor=#666666;mainText=" vertex="1" parent="pK-hUQg6xLrgGSAAC2_B-7">
          <mxGeometry x="20" y="180" width="220" height="30" as="geometry" />
        </mxCell>
        <mxCell id="pK-hUQg6xLrgGSAAC2_B-260" value="" style="verticalLabelPosition=bottom;shadow=0;dashed=0;align=center;html=1;verticalAlign=top;strokeWidth=1;shape=mxgraph.mockup.misc.help_icon;fontFamily=Helvetica;fontSize=11;fontColor=default;labelBackgroundColor=default;" vertex="1" parent="pK-hUQg6xLrgGSAAC2_B-7">
          <mxGeometry x="214" y="184" width="22" height="22" as="geometry" />
        </mxCell>
        <mxCell id="pK-hUQg6xLrgGSAAC2_B-261" value="Bassa" style="strokeWidth=1;shadow=0;dashed=0;align=center;html=1;shape=mxgraph.mockup.forms.comboBox;strokeColor=#999999;fillColor=#ddeeff;align=left;fillColor2=#aaddff;mainText=;fontColor=#666666;fontSize=17;spacingLeft=3;fontFamily=Helvetica;labelBackgroundColor=default;" vertex="1" parent="pK-hUQg6xLrgGSAAC2_B-7">
          <mxGeometry x="250" y="180" width="130" height="30" as="geometry" />
        </mxCell>
        <mxCell id="pK-hUQg6xLrgGSAAC2_B-27" value="" style="strokeWidth=1;shadow=0;dashed=0;align=center;html=1;shape=mxgraph.mockup.containers.rrect;rSize=0;strokeColor=#666666;fontColor=#666666;fontSize=17;verticalAlign=top;whiteSpace=wrap;fillColor=#ffffff;spacingTop=32;" vertex="1" parent="qmhfRPb0Hw7Yd657BUEG-1">
          <mxGeometry x="740" y="260" width="260" height="380" as="geometry" />
        </mxCell>
        <mxCell id="pK-hUQg6xLrgGSAAC2_B-36" value="Cerca attività..." style="strokeWidth=1;shadow=0;dashed=0;align=center;html=1;shape=mxgraph.mockup.forms.searchBox;strokeColor=#999999;mainText=;strokeColor2=#008cff;fontColor=#666666;fontSize=17;align=left;spacingLeft=3;whiteSpace=wrap;" vertex="1" parent="qmhfRPb0Hw7Yd657BUEG-1">
          <mxGeometry x="740" y="260" width="260" height="30" as="geometry" />
        </mxCell>
        <mxCell id="pK-hUQg6xLrgGSAAC2_B-38" value="Sessione corrente" style="strokeWidth=1;shadow=0;dashed=0;align=center;html=1;shape=mxgraph.mockup.containers.rrect;rSize=0;fontSize=17;fontColor=#666666;strokeColor=#666666;align=left;spacingLeft=8;fillColor=none;resizeWidth=1;whiteSpace=wrap;fontStyle=1" vertex="1" parent="qmhfRPb0Hw7Yd657BUEG-1">
          <mxGeometry width="260" height="30" relative="1" as="geometry">
            <mxPoint x="740" y="230" as="offset" />
          </mxGeometry>
        </mxCell>
        <mxCell id="pK-hUQg6xLrgGSAAC2_B-42" value="Avvia" style="strokeWidth=1;shadow=0;dashed=0;align=center;html=1;shape=mxgraph.mockup.buttons.button;strokeColor=#666666;fontColor=#ffffff;mainText=;buttonStyle=round;fontSize=17;fontStyle=1;fillColor=#008cff;whiteSpace=wrap;" vertex="1" parent="qmhfRPb0Hw7Yd657BUEG-1">
          <mxGeometry x="820" y="305" width="100" height="30" as="geometry" />
        </mxCell>
        <mxCell id="pK-hUQg6xLrgGSAAC2_B-51" value="" style="rounded=0;whiteSpace=wrap;html=1;" vertex="1" parent="qmhfRPb0Hw7Yd657BUEG-1">
          <mxGeometry x="870" y="361.25" width="30" height="7.5" as="geometry" />
        </mxCell>
        <mxCell id="pK-hUQg6xLrgGSAAC2_B-5" value="Cerca attività..." style="strokeWidth=1;shadow=0;dashed=0;align=center;html=1;shape=mxgraph.mockup.forms.searchBox;strokeColor=#999999;mainText=;strokeColor2=#008cff;fontColor=#666666;fontSize=17;align=left;spacingLeft=3;whiteSpace=wrap;" vertex="1" parent="qmhfRPb0Hw7Yd657BUEG-1">
          <mxGeometry x="170" y="230" width="450" height="30" as="geometry" />
        </mxCell>
        <mxCell id="pK-hUQg6xLrgGSAAC2_B-44" value="Attività 3&amp;nbsp;(B)" style="strokeWidth=1;shadow=0;dashed=0;align=center;html=1;shape=mxgraph.mockup.text.textBox;fontColor=#666666;align=left;fontSize=17;spacingLeft=4;spacingTop=-3;whiteSpace=wrap;strokeColor=#666666;mainText=" vertex="1" parent="qmhfRPb0Hw7Yd657BUEG-1">
          <mxGeometry x="750" y="390" width="110" height="30" as="geometry" />
        </mxCell>
        <mxCell id="pK-hUQg6xLrgGSAAC2_B-43" value="Attività 2 (M)" style="strokeWidth=1;shadow=0;dashed=0;align=center;html=1;shape=mxgraph.mockup.text.textBox;fontColor=#666666;align=left;fontSize=17;spacingLeft=4;spacingTop=-3;whiteSpace=wrap;strokeColor=#666666;mainText=" vertex="1" parent="qmhfRPb0Hw7Yd657BUEG-1">
          <mxGeometry x="750" y="350" width="110" height="30" as="geometry" />
        </mxCell>
        <mxCell id="pK-hUQg6xLrgGSAAC2_B-46" value="Attività 1 (A)" style="strokeWidth=1;shadow=0;dashed=0;align=center;html=1;shape=mxgraph.mockup.text.textBox;fontColor=#666666;align=left;fontSize=17;spacingLeft=4;spacingTop=-3;whiteSpace=wrap;strokeColor=#666666;mainText=" vertex="1" parent="qmhfRPb0Hw7Yd657BUEG-1">
          <mxGeometry x="750" y="430" width="110" height="30" as="geometry" />
        </mxCell>
        <mxCell id="pK-hUQg6xLrgGSAAC2_B-111" value="" style="shape=singleArrow;direction=north;whiteSpace=wrap;html=1;" vertex="1" parent="qmhfRPb0Hw7Yd657BUEG-1">
          <mxGeometry x="910" y="350" width="20" height="30" as="geometry" />
        </mxCell>
        <mxCell id="pK-hUQg6xLrgGSAAC2_B-112" value="" style="shape=singleArrow;direction=north;whiteSpace=wrap;html=1;rotation=-180;" vertex="1" parent="qmhfRPb0Hw7Yd657BUEG-1">
          <mxGeometry x="940" y="350" width="20" height="30" as="geometry" />
        </mxCell>
        <mxCell id="pK-hUQg6xLrgGSAAC2_B-113" value="&lt;font style=&quot;font-size: 20px;&quot;&gt;3&lt;/font&gt;" style="text;html=1;align=center;verticalAlign=middle;whiteSpace=wrap;rounded=0;" vertex="1" parent="qmhfRPb0Hw7Yd657BUEG-1">
          <mxGeometry x="970" y="350" width="30" height="30" as="geometry" />
        </mxCell>
        <mxCell id="pK-hUQg6xLrgGSAAC2_B-114" value="" style="rounded=0;whiteSpace=wrap;html=1;" vertex="1" parent="qmhfRPb0Hw7Yd657BUEG-1">
          <mxGeometry x="870" y="401.25" width="30" height="7.5" as="geometry" />
        </mxCell>
        <mxCell id="pK-hUQg6xLrgGSAAC2_B-115" value="" style="shape=singleArrow;direction=north;whiteSpace=wrap;html=1;" vertex="1" parent="qmhfRPb0Hw7Yd657BUEG-1">
          <mxGeometry x="910" y="390" width="20" height="30" as="geometry" />
        </mxCell>
        <mxCell id="pK-hUQg6xLrgGSAAC2_B-116" value="" style="shape=singleArrow;direction=north;whiteSpace=wrap;html=1;rotation=-180;" vertex="1" parent="qmhfRPb0Hw7Yd657BUEG-1">
          <mxGeometry x="940" y="390" width="20" height="30" as="geometry" />
        </mxCell>
        <mxCell id="pK-hUQg6xLrgGSAAC2_B-117" value="&lt;font style=&quot;font-size: 20px;&quot;&gt;2&lt;/font&gt;" style="text;html=1;align=center;verticalAlign=middle;whiteSpace=wrap;rounded=0;" vertex="1" parent="qmhfRPb0Hw7Yd657BUEG-1">
          <mxGeometry x="970" y="390" width="30" height="30" as="geometry" />
        </mxCell>
        <mxCell id="pK-hUQg6xLrgGSAAC2_B-118" value="" style="rounded=0;whiteSpace=wrap;html=1;" vertex="1" parent="qmhfRPb0Hw7Yd657BUEG-1">
          <mxGeometry x="870" y="441.25" width="30" height="7.5" as="geometry" />
        </mxCell>
        <mxCell id="pK-hUQg6xLrgGSAAC2_B-119" value="" style="shape=singleArrow;direction=north;whiteSpace=wrap;html=1;" vertex="1" parent="qmhfRPb0Hw7Yd657BUEG-1">
          <mxGeometry x="910" y="430" width="20" height="30" as="geometry" />
        </mxCell>
        <mxCell id="pK-hUQg6xLrgGSAAC2_B-120" value="" style="shape=singleArrow;direction=north;whiteSpace=wrap;html=1;rotation=-180;" vertex="1" parent="qmhfRPb0Hw7Yd657BUEG-1">
          <mxGeometry x="940" y="430" width="20" height="30" as="geometry" />
        </mxCell>
        <mxCell id="pK-hUQg6xLrgGSAAC2_B-121" value="&lt;font style=&quot;font-size: 20px;&quot;&gt;1&lt;/font&gt;" style="text;html=1;align=center;verticalAlign=middle;whiteSpace=wrap;rounded=0;" vertex="1" parent="qmhfRPb0Hw7Yd657BUEG-1">
          <mxGeometry x="970" y="430" width="30" height="30" as="geometry" />
        </mxCell>
        <mxCell id="pK-hUQg6xLrgGSAAC2_B-123" value="" style="endArrow=none;dashed=1;html=1;rounded=0;dashPattern=1 4;" edge="1" parent="qmhfRPb0Hw7Yd657BUEG-1">
          <mxGeometry width="50" height="50" relative="1" as="geometry">
            <mxPoint x="750" y="480" as="sourcePoint" />
            <mxPoint x="830" y="480" as="targetPoint" />
          </mxGeometry>
        </mxCell>
        <mxCell id="pK-hUQg6xLrgGSAAC2_B-124" value="" style="endArrow=none;dashed=1;html=1;rounded=0;dashPattern=1 4;" edge="1" parent="qmhfRPb0Hw7Yd657BUEG-1">
          <mxGeometry width="50" height="50" relative="1" as="geometry">
            <mxPoint x="750" y="500" as="sourcePoint" />
            <mxPoint x="830" y="500" as="targetPoint" />
          </mxGeometry>
        </mxCell>
        <mxCell id="pK-hUQg6xLrgGSAAC2_B-125" value="" style="endArrow=none;dashed=1;html=1;rounded=0;dashPattern=1 4;" edge="1" parent="qmhfRPb0Hw7Yd657BUEG-1">
          <mxGeometry width="50" height="50" relative="1" as="geometry">
            <mxPoint x="750" y="490" as="sourcePoint" />
            <mxPoint x="830" y="490" as="targetPoint" />
          </mxGeometry>
        </mxCell>
        <mxCell id="pK-hUQg6xLrgGSAAC2_B-373" value="Area personale" style="strokeWidth=1;shadow=0;dashed=0;align=center;html=1;shape=mxgraph.mockup.buttons.button;strokeColor=#666666;fontColor=#ffffff;mainText=;buttonStyle=round;fontSize=17;fontStyle=1;fillColor=#008cff;whiteSpace=wrap;" vertex="1" parent="qmhfRPb0Hw7Yd657BUEG-1">
          <mxGeometry x="880" y="115" width="110" height="40" as="geometry" />
        </mxCell>
        <mxCell id="pK-hUQg6xLrgGSAAC2_B-168" value="&lt;h1 style=&quot;margin-top: 0px;&quot;&gt;Home&lt;/h1&gt;&lt;p&gt;All&#39;apertura della pagina&lt;/p&gt;" style="text;html=1;whiteSpace=wrap;overflow=hidden;rounded=0;" vertex="1" parent="1">
          <mxGeometry x="40" y="-40" width="180" height="80" as="geometry" />
        </mxCell>
        <mxCell id="pK-hUQg6xLrgGSAAC2_B-173" value="&lt;h1 style=&quot;margin-top: 0px;&quot;&gt;Home&lt;/h1&gt;&lt;p&gt;Alla ricerca di una attività&lt;/p&gt;" style="text;html=1;whiteSpace=wrap;overflow=hidden;rounded=0;" vertex="1" parent="1">
          <mxGeometry x="40" y="680" width="180" height="80" as="geometry" />
        </mxCell>
        <mxCell id="pK-hUQg6xLrgGSAAC2_B-234" value="&lt;h1 style=&quot;margin-top: 0px;&quot;&gt;Home&lt;/h1&gt;&lt;p&gt;Quando si richiedono le informazioni su un&#39;attività&lt;/p&gt;" style="text;html=1;whiteSpace=wrap;overflow=hidden;rounded=0;" vertex="1" parent="1">
          <mxGeometry x="40" y="-760" width="180" height="80" as="geometry" />
        </mxCell>
        <mxCell id="pK-hUQg6xLrgGSAAC2_B-241" style="edgeStyle=orthogonalEdgeStyle;shape=connector;rounded=0;orthogonalLoop=1;jettySize=auto;html=1;strokeColor=light-dark(#008cff, #0089b6);align=center;verticalAlign=middle;fontFamily=Helvetica;fontSize=11;fontColor=default;labelBackgroundColor=default;endArrow=classic;" edge="1" parent="1" source="pK-hUQg6xLrgGSAAC2_B-176" target="pK-hUQg6xLrgGSAAC2_B-266">
          <mxGeometry relative="1" as="geometry">
            <mxPoint x="435" y="-40" as="targetPoint" />
            <Array as="points">
              <mxPoint x="435" y="80" />
              <mxPoint x="435" y="80" />
            </Array>
          </mxGeometry>
        </mxCell>
        <mxCell id="pK-hUQg6xLrgGSAAC2_B-371" value="Richiesta informazioni" style="edgeLabel;html=1;align=center;verticalAlign=middle;resizable=0;points=[];fontFamily=Helvetica;fontSize=11;fontColor=default;labelBackgroundColor=default;" vertex="1" connectable="0" parent="pK-hUQg6xLrgGSAAC2_B-241">
          <mxGeometry x="-0.3619" y="2" relative="1" as="geometry">
            <mxPoint as="offset" />
          </mxGeometry>
        </mxCell>
        <mxCell id="pK-hUQg6xLrgGSAAC2_B-266" value="" style="strokeWidth=1;shadow=0;dashed=0;align=left;html=1;shape=mxgraph.mockup.containers.browserWindow;rSize=0;strokeColor=#666666;strokeColor2=#008cff;strokeColor3=#c4c4c4;mainText=,;recursiveResize=0;" vertex="1" parent="1">
          <mxGeometry x="40" y="-680" width="1000" height="640" as="geometry" />
        </mxCell>
        <mxCell id="pK-hUQg6xLrgGSAAC2_B-267" value="Home" style="strokeWidth=1;shadow=0;dashed=0;align=center;html=1;shape=mxgraph.mockup.containers.anchor;fontSize=17;fontColor=#666666;align=left;whiteSpace=wrap;" vertex="1" parent="pK-hUQg6xLrgGSAAC2_B-266">
          <mxGeometry x="60" y="12" width="110" height="26" as="geometry" />
        </mxCell>
        <mxCell id="pK-hUQg6xLrgGSAAC2_B-268" value="https://rehabrain.eu/#home" style="strokeWidth=1;shadow=0;dashed=0;align=center;html=1;shape=mxgraph.mockup.containers.anchor;rSize=0;fontSize=17;fontColor=#666666;align=left;" vertex="1" parent="pK-hUQg6xLrgGSAAC2_B-266">
          <mxGeometry x="130" y="60" width="250" height="26" as="geometry" />
        </mxCell>
        <mxCell id="pK-hUQg6xLrgGSAAC2_B-269" value="" style="verticalLabelPosition=bottom;shadow=0;dashed=0;align=center;html=1;verticalAlign=top;strokeWidth=1;shape=mxgraph.mockup.graphics.simpleIcon;strokeColor=#999999;" vertex="1" parent="pK-hUQg6xLrgGSAAC2_B-266">
          <mxGeometry y="110" width="50" height="50" as="geometry" />
        </mxCell>
        <mxCell id="pK-hUQg6xLrgGSAAC2_B-270" value="&lt;b style=&quot;&quot;&gt;&lt;font style=&quot;font-size: 30px;&quot;&gt;RehaBrain&lt;/font&gt;&lt;/b&gt;" style="text;html=1;align=left;verticalAlign=middle;whiteSpace=wrap;rounded=0;" vertex="1" parent="pK-hUQg6xLrgGSAAC2_B-266">
          <mxGeometry x="70" y="110" width="150" height="50" as="geometry" />
        </mxCell>
        <mxCell id="pK-hUQg6xLrgGSAAC2_B-272" value="" style="verticalLabelPosition=bottom;shadow=0;dashed=0;align=center;html=1;verticalAlign=top;strokeWidth=1;shape=mxgraph.mockup.markup.line;strokeColor=#999999;" vertex="1" parent="pK-hUQg6xLrgGSAAC2_B-266">
          <mxGeometry y="150" width="1000" height="20" as="geometry" />
        </mxCell>
        <mxCell id="pK-hUQg6xLrgGSAAC2_B-273" value="" style="strokeWidth=1;shadow=0;dashed=0;align=center;html=1;shape=mxgraph.mockup.containers.rrect;rSize=0;strokeColor=#666666;fontColor=#666666;fontSize=17;verticalAlign=top;whiteSpace=wrap;fillColor=#ffffff;spacingTop=32;" vertex="1" parent="pK-hUQg6xLrgGSAAC2_B-266">
          <mxGeometry x="170" y="260" width="450" height="250" as="geometry" />
        </mxCell>
        <mxCell id="pK-hUQg6xLrgGSAAC2_B-274" value="Attività 1" style="strokeWidth=1;shadow=0;dashed=0;align=center;html=1;shape=mxgraph.mockup.text.textBox;fontColor=#666666;align=left;fontSize=17;spacingLeft=4;spacingTop=-3;whiteSpace=wrap;strokeColor=#666666;mainText=" vertex="1" parent="pK-hUQg6xLrgGSAAC2_B-273">
          <mxGeometry x="20" y="20" width="220" height="30" as="geometry" />
        </mxCell>
        <mxCell id="pK-hUQg6xLrgGSAAC2_B-275" value="" style="shape=cross;whiteSpace=wrap;html=1;" vertex="1" parent="pK-hUQg6xLrgGSAAC2_B-273">
          <mxGeometry x="390" y="60" width="30" height="30" as="geometry" />
        </mxCell>
        <mxCell id="pK-hUQg6xLrgGSAAC2_B-276" value="" style="verticalLabelPosition=bottom;shadow=0;dashed=0;align=center;html=1;verticalAlign=top;strokeWidth=1;shape=mxgraph.mockup.misc.help_icon;fontFamily=Helvetica;fontSize=11;fontColor=default;labelBackgroundColor=default;" vertex="1" parent="pK-hUQg6xLrgGSAAC2_B-273">
          <mxGeometry x="214" y="24" width="22" height="22" as="geometry" />
        </mxCell>
        <mxCell id="pK-hUQg6xLrgGSAAC2_B-277" value="" style="shape=cross;whiteSpace=wrap;html=1;" vertex="1" parent="pK-hUQg6xLrgGSAAC2_B-273">
          <mxGeometry x="390" y="100" width="30" height="30" as="geometry" />
        </mxCell>
        <mxCell id="pK-hUQg6xLrgGSAAC2_B-278" value="" style="shape=cross;whiteSpace=wrap;html=1;" vertex="1" parent="pK-hUQg6xLrgGSAAC2_B-273">
          <mxGeometry x="390" y="140" width="30" height="30" as="geometry" />
        </mxCell>
        <mxCell id="pK-hUQg6xLrgGSAAC2_B-279" value="" style="shape=cross;whiteSpace=wrap;html=1;" vertex="1" parent="pK-hUQg6xLrgGSAAC2_B-273">
          <mxGeometry x="390" y="20" width="30" height="30" as="geometry" />
        </mxCell>
        <mxCell id="pK-hUQg6xLrgGSAAC2_B-280" value="" style="shape=cross;whiteSpace=wrap;html=1;" vertex="1" parent="pK-hUQg6xLrgGSAAC2_B-273">
          <mxGeometry x="390" y="180" width="30" height="30" as="geometry" />
        </mxCell>
        <mxCell id="pK-hUQg6xLrgGSAAC2_B-281" value="Bassa" style="strokeWidth=1;shadow=0;dashed=0;align=center;html=1;shape=mxgraph.mockup.forms.comboBox;strokeColor=#999999;fillColor=#ddeeff;align=left;fillColor2=#aaddff;mainText=;fontColor=#666666;fontSize=17;spacingLeft=3;fontFamily=Helvetica;labelBackgroundColor=default;" vertex="1" parent="pK-hUQg6xLrgGSAAC2_B-273">
          <mxGeometry x="250" y="20" width="130" height="30" as="geometry" />
        </mxCell>
        <mxCell id="pK-hUQg6xLrgGSAAC2_B-282" value="Attività 2" style="strokeWidth=1;shadow=0;dashed=0;align=center;html=1;shape=mxgraph.mockup.text.textBox;fontColor=#666666;align=left;fontSize=17;spacingLeft=4;spacingTop=-3;whiteSpace=wrap;strokeColor=#666666;mainText=" vertex="1" parent="pK-hUQg6xLrgGSAAC2_B-273">
          <mxGeometry x="20" y="60" width="220" height="30" as="geometry" />
        </mxCell>
        <mxCell id="pK-hUQg6xLrgGSAAC2_B-283" value="" style="verticalLabelPosition=bottom;shadow=0;dashed=0;align=center;html=1;verticalAlign=top;strokeWidth=1;shape=mxgraph.mockup.misc.help_icon;fontFamily=Helvetica;fontSize=11;fontColor=default;labelBackgroundColor=default;" vertex="1" parent="pK-hUQg6xLrgGSAAC2_B-273">
          <mxGeometry x="214" y="64" width="22" height="22" as="geometry" />
        </mxCell>
        <mxCell id="pK-hUQg6xLrgGSAAC2_B-284" value="Media" style="strokeWidth=1;shadow=0;dashed=0;align=center;html=1;shape=mxgraph.mockup.forms.comboBox;strokeColor=#999999;fillColor=#ddeeff;align=left;fillColor2=#aaddff;mainText=;fontColor=#666666;fontSize=17;spacingLeft=3;fontFamily=Helvetica;labelBackgroundColor=default;" vertex="1" parent="pK-hUQg6xLrgGSAAC2_B-273">
          <mxGeometry x="250" y="60" width="130" height="30" as="geometry" />
        </mxCell>
        <mxCell id="pK-hUQg6xLrgGSAAC2_B-285" value="Attività 3" style="strokeWidth=1;shadow=0;dashed=0;align=center;html=1;shape=mxgraph.mockup.text.textBox;fontColor=#666666;align=left;fontSize=17;spacingLeft=4;spacingTop=-3;whiteSpace=wrap;strokeColor=#666666;mainText=" vertex="1" parent="pK-hUQg6xLrgGSAAC2_B-273">
          <mxGeometry x="20" y="100" width="220" height="30" as="geometry" />
        </mxCell>
        <mxCell id="pK-hUQg6xLrgGSAAC2_B-286" value="" style="verticalLabelPosition=bottom;shadow=0;dashed=0;align=center;html=1;verticalAlign=top;strokeWidth=1;shape=mxgraph.mockup.misc.help_icon;fontFamily=Helvetica;fontSize=11;fontColor=default;labelBackgroundColor=default;" vertex="1" parent="pK-hUQg6xLrgGSAAC2_B-273">
          <mxGeometry x="214" y="104" width="22" height="22" as="geometry" />
        </mxCell>
        <mxCell id="pK-hUQg6xLrgGSAAC2_B-287" value="Bassa" style="strokeWidth=1;shadow=0;dashed=0;align=center;html=1;shape=mxgraph.mockup.forms.comboBox;strokeColor=#999999;fillColor=#ddeeff;align=left;fillColor2=#aaddff;mainText=;fontColor=#666666;fontSize=17;spacingLeft=3;fontFamily=Helvetica;labelBackgroundColor=default;" vertex="1" parent="pK-hUQg6xLrgGSAAC2_B-273">
          <mxGeometry x="250" y="100" width="130" height="30" as="geometry" />
        </mxCell>
        <mxCell id="pK-hUQg6xLrgGSAAC2_B-288" value="Attività 4" style="strokeWidth=1;shadow=0;dashed=0;align=center;html=1;shape=mxgraph.mockup.text.textBox;fontColor=#666666;align=left;fontSize=17;spacingLeft=4;spacingTop=-3;whiteSpace=wrap;strokeColor=#666666;mainText=" vertex="1" parent="pK-hUQg6xLrgGSAAC2_B-273">
          <mxGeometry x="20" y="140" width="220" height="30" as="geometry" />
        </mxCell>
        <mxCell id="pK-hUQg6xLrgGSAAC2_B-289" value="" style="verticalLabelPosition=bottom;shadow=0;dashed=0;align=center;html=1;verticalAlign=top;strokeWidth=1;shape=mxgraph.mockup.misc.help_icon;fontFamily=Helvetica;fontSize=11;fontColor=default;labelBackgroundColor=default;" vertex="1" parent="pK-hUQg6xLrgGSAAC2_B-273">
          <mxGeometry x="214" y="144" width="22" height="22" as="geometry" />
        </mxCell>
        <mxCell id="pK-hUQg6xLrgGSAAC2_B-290" value="Alta" style="strokeWidth=1;shadow=0;dashed=0;align=center;html=1;shape=mxgraph.mockup.forms.comboBox;strokeColor=#999999;fillColor=#ddeeff;align=left;fillColor2=#aaddff;mainText=;fontColor=#666666;fontSize=17;spacingLeft=3;fontFamily=Helvetica;labelBackgroundColor=default;" vertex="1" parent="pK-hUQg6xLrgGSAAC2_B-273">
          <mxGeometry x="250" y="140" width="130" height="30" as="geometry" />
        </mxCell>
        <mxCell id="pK-hUQg6xLrgGSAAC2_B-291" value="Attività 5" style="strokeWidth=1;shadow=0;dashed=0;align=center;html=1;shape=mxgraph.mockup.text.textBox;fontColor=#666666;align=left;fontSize=17;spacingLeft=4;spacingTop=-3;whiteSpace=wrap;strokeColor=#666666;mainText=" vertex="1" parent="pK-hUQg6xLrgGSAAC2_B-273">
          <mxGeometry x="20" y="180" width="220" height="30" as="geometry" />
        </mxCell>
        <mxCell id="pK-hUQg6xLrgGSAAC2_B-292" value="" style="verticalLabelPosition=bottom;shadow=0;dashed=0;align=center;html=1;verticalAlign=top;strokeWidth=1;shape=mxgraph.mockup.misc.help_icon;fontFamily=Helvetica;fontSize=11;fontColor=default;labelBackgroundColor=default;" vertex="1" parent="pK-hUQg6xLrgGSAAC2_B-273">
          <mxGeometry x="214" y="184" width="22" height="22" as="geometry" />
        </mxCell>
        <mxCell id="pK-hUQg6xLrgGSAAC2_B-293" value="Bassa" style="strokeWidth=1;shadow=0;dashed=0;align=center;html=1;shape=mxgraph.mockup.forms.comboBox;strokeColor=#999999;fillColor=#ddeeff;align=left;fillColor2=#aaddff;mainText=;fontColor=#666666;fontSize=17;spacingLeft=3;fontFamily=Helvetica;labelBackgroundColor=default;" vertex="1" parent="pK-hUQg6xLrgGSAAC2_B-273">
          <mxGeometry x="250" y="180" width="130" height="30" as="geometry" />
        </mxCell>
        <mxCell id="pK-hUQg6xLrgGSAAC2_B-294" value="" style="strokeWidth=1;shadow=0;dashed=0;align=center;html=1;shape=mxgraph.mockup.containers.rrect;rSize=0;strokeColor=#666666;fontColor=#666666;fontSize=17;verticalAlign=top;whiteSpace=wrap;fillColor=#ffffff;spacingTop=32;" vertex="1" parent="pK-hUQg6xLrgGSAAC2_B-266">
          <mxGeometry x="740" y="260" width="260" height="380" as="geometry" />
        </mxCell>
        <mxCell id="pK-hUQg6xLrgGSAAC2_B-295" value="Cerca attività..." style="strokeWidth=1;shadow=0;dashed=0;align=center;html=1;shape=mxgraph.mockup.forms.searchBox;strokeColor=#999999;mainText=;strokeColor2=#008cff;fontColor=#666666;fontSize=17;align=left;spacingLeft=3;whiteSpace=wrap;" vertex="1" parent="pK-hUQg6xLrgGSAAC2_B-266">
          <mxGeometry x="740" y="260" width="260" height="30" as="geometry" />
        </mxCell>
        <mxCell id="pK-hUQg6xLrgGSAAC2_B-296" value="Sessione corrente" style="strokeWidth=1;shadow=0;dashed=0;align=center;html=1;shape=mxgraph.mockup.containers.rrect;rSize=0;fontSize=17;fontColor=#666666;strokeColor=#666666;align=left;spacingLeft=8;fillColor=none;resizeWidth=1;whiteSpace=wrap;fontStyle=1" vertex="1" parent="pK-hUQg6xLrgGSAAC2_B-266">
          <mxGeometry width="260" height="30" relative="1" as="geometry">
            <mxPoint x="740" y="230" as="offset" />
          </mxGeometry>
        </mxCell>
        <mxCell id="pK-hUQg6xLrgGSAAC2_B-297" value="Avvia" style="strokeWidth=1;shadow=0;dashed=0;align=center;html=1;shape=mxgraph.mockup.buttons.button;strokeColor=#666666;fontColor=#ffffff;mainText=;buttonStyle=round;fontSize=17;fontStyle=1;fillColor=#008cff;whiteSpace=wrap;" vertex="1" parent="pK-hUQg6xLrgGSAAC2_B-266">
          <mxGeometry x="820" y="305" width="100" height="30" as="geometry" />
        </mxCell>
        <mxCell id="pK-hUQg6xLrgGSAAC2_B-298" value="" style="rounded=0;whiteSpace=wrap;html=1;" vertex="1" parent="pK-hUQg6xLrgGSAAC2_B-266">
          <mxGeometry x="870" y="361.25" width="30" height="7.5" as="geometry" />
        </mxCell>
        <mxCell id="pK-hUQg6xLrgGSAAC2_B-299" value="Cerca attività..." style="strokeWidth=1;shadow=0;dashed=0;align=center;html=1;shape=mxgraph.mockup.forms.searchBox;strokeColor=#999999;mainText=;strokeColor2=#008cff;fontColor=#666666;fontSize=17;align=left;spacingLeft=3;whiteSpace=wrap;" vertex="1" parent="pK-hUQg6xLrgGSAAC2_B-266">
          <mxGeometry x="170" y="230" width="450" height="30" as="geometry" />
        </mxCell>
        <mxCell id="pK-hUQg6xLrgGSAAC2_B-300" value="Attività 3&amp;nbsp;(B)" style="strokeWidth=1;shadow=0;dashed=0;align=center;html=1;shape=mxgraph.mockup.text.textBox;fontColor=#666666;align=left;fontSize=17;spacingLeft=4;spacingTop=-3;whiteSpace=wrap;strokeColor=#666666;mainText=" vertex="1" parent="pK-hUQg6xLrgGSAAC2_B-266">
          <mxGeometry x="750" y="390" width="110" height="30" as="geometry" />
        </mxCell>
        <mxCell id="pK-hUQg6xLrgGSAAC2_B-301" value="Attività 2 (M)" style="strokeWidth=1;shadow=0;dashed=0;align=center;html=1;shape=mxgraph.mockup.text.textBox;fontColor=#666666;align=left;fontSize=17;spacingLeft=4;spacingTop=-3;whiteSpace=wrap;strokeColor=#666666;mainText=" vertex="1" parent="pK-hUQg6xLrgGSAAC2_B-266">
          <mxGeometry x="750" y="350" width="110" height="30" as="geometry" />
        </mxCell>
        <mxCell id="pK-hUQg6xLrgGSAAC2_B-302" value="Attività 1 (A)" style="strokeWidth=1;shadow=0;dashed=0;align=center;html=1;shape=mxgraph.mockup.text.textBox;fontColor=#666666;align=left;fontSize=17;spacingLeft=4;spacingTop=-3;whiteSpace=wrap;strokeColor=#666666;mainText=" vertex="1" parent="pK-hUQg6xLrgGSAAC2_B-266">
          <mxGeometry x="750" y="430" width="110" height="30" as="geometry" />
        </mxCell>
        <mxCell id="pK-hUQg6xLrgGSAAC2_B-303" value="" style="shape=singleArrow;direction=north;whiteSpace=wrap;html=1;" vertex="1" parent="pK-hUQg6xLrgGSAAC2_B-266">
          <mxGeometry x="910" y="350" width="20" height="30" as="geometry" />
        </mxCell>
        <mxCell id="pK-hUQg6xLrgGSAAC2_B-304" value="" style="shape=singleArrow;direction=north;whiteSpace=wrap;html=1;rotation=-180;" vertex="1" parent="pK-hUQg6xLrgGSAAC2_B-266">
          <mxGeometry x="940" y="350" width="20" height="30" as="geometry" />
        </mxCell>
        <mxCell id="pK-hUQg6xLrgGSAAC2_B-305" value="&lt;font style=&quot;font-size: 20px;&quot;&gt;3&lt;/font&gt;" style="text;html=1;align=center;verticalAlign=middle;whiteSpace=wrap;rounded=0;" vertex="1" parent="pK-hUQg6xLrgGSAAC2_B-266">
          <mxGeometry x="970" y="350" width="30" height="30" as="geometry" />
        </mxCell>
        <mxCell id="pK-hUQg6xLrgGSAAC2_B-306" value="" style="rounded=0;whiteSpace=wrap;html=1;" vertex="1" parent="pK-hUQg6xLrgGSAAC2_B-266">
          <mxGeometry x="870" y="401.25" width="30" height="7.5" as="geometry" />
        </mxCell>
        <mxCell id="pK-hUQg6xLrgGSAAC2_B-307" value="" style="shape=singleArrow;direction=north;whiteSpace=wrap;html=1;" vertex="1" parent="pK-hUQg6xLrgGSAAC2_B-266">
          <mxGeometry x="910" y="390" width="20" height="30" as="geometry" />
        </mxCell>
        <mxCell id="pK-hUQg6xLrgGSAAC2_B-308" value="" style="shape=singleArrow;direction=north;whiteSpace=wrap;html=1;rotation=-180;" vertex="1" parent="pK-hUQg6xLrgGSAAC2_B-266">
          <mxGeometry x="940" y="390" width="20" height="30" as="geometry" />
        </mxCell>
        <mxCell id="pK-hUQg6xLrgGSAAC2_B-309" value="&lt;font style=&quot;font-size: 20px;&quot;&gt;2&lt;/font&gt;" style="text;html=1;align=center;verticalAlign=middle;whiteSpace=wrap;rounded=0;" vertex="1" parent="pK-hUQg6xLrgGSAAC2_B-266">
          <mxGeometry x="970" y="390" width="30" height="30" as="geometry" />
        </mxCell>
        <mxCell id="pK-hUQg6xLrgGSAAC2_B-310" value="" style="rounded=0;whiteSpace=wrap;html=1;" vertex="1" parent="pK-hUQg6xLrgGSAAC2_B-266">
          <mxGeometry x="870" y="441.25" width="30" height="7.5" as="geometry" />
        </mxCell>
        <mxCell id="pK-hUQg6xLrgGSAAC2_B-311" value="" style="shape=singleArrow;direction=north;whiteSpace=wrap;html=1;" vertex="1" parent="pK-hUQg6xLrgGSAAC2_B-266">
          <mxGeometry x="910" y="430" width="20" height="30" as="geometry" />
        </mxCell>
        <mxCell id="pK-hUQg6xLrgGSAAC2_B-312" value="" style="shape=singleArrow;direction=north;whiteSpace=wrap;html=1;rotation=-180;" vertex="1" parent="pK-hUQg6xLrgGSAAC2_B-266">
          <mxGeometry x="940" y="430" width="20" height="30" as="geometry" />
        </mxCell>
        <mxCell id="pK-hUQg6xLrgGSAAC2_B-313" value="&lt;font style=&quot;font-size: 20px;&quot;&gt;1&lt;/font&gt;" style="text;html=1;align=center;verticalAlign=middle;whiteSpace=wrap;rounded=0;" vertex="1" parent="pK-hUQg6xLrgGSAAC2_B-266">
          <mxGeometry x="970" y="430" width="30" height="30" as="geometry" />
        </mxCell>
        <mxCell id="pK-hUQg6xLrgGSAAC2_B-314" value="" style="endArrow=none;dashed=1;html=1;rounded=0;dashPattern=1 4;" edge="1" parent="pK-hUQg6xLrgGSAAC2_B-266">
          <mxGeometry width="50" height="50" relative="1" as="geometry">
            <mxPoint x="750" y="480" as="sourcePoint" />
            <mxPoint x="830" y="480" as="targetPoint" />
          </mxGeometry>
        </mxCell>
        <mxCell id="pK-hUQg6xLrgGSAAC2_B-315" value="" style="endArrow=none;dashed=1;html=1;rounded=0;dashPattern=1 4;" edge="1" parent="pK-hUQg6xLrgGSAAC2_B-266">
          <mxGeometry width="50" height="50" relative="1" as="geometry">
            <mxPoint x="750" y="500" as="sourcePoint" />
            <mxPoint x="830" y="500" as="targetPoint" />
          </mxGeometry>
        </mxCell>
        <mxCell id="pK-hUQg6xLrgGSAAC2_B-316" value="" style="endArrow=none;dashed=1;html=1;rounded=0;dashPattern=1 4;" edge="1" parent="pK-hUQg6xLrgGSAAC2_B-266">
          <mxGeometry width="50" height="50" relative="1" as="geometry">
            <mxPoint x="750" y="490" as="sourcePoint" />
            <mxPoint x="830" y="490" as="targetPoint" />
          </mxGeometry>
        </mxCell>
        <mxCell id="pK-hUQg6xLrgGSAAC2_B-235" value="&lt;span style=&quot;color: rgb(0, 0, 0); font-size: 11px;&quot;&gt;Lorem ipsum dolor sit amet, consectetur adipisicing elit, sed do eiusmod tempor incididunt ut labore et dolore magna aliqua. Ut enim ad minim veniam, quis nostrud exercitation ullamco laboris nisi ut aliquip ex ea commodo consequat. Duis aute irure dolor in reprehenderit in voluptate velit esse cillum dolore eu fugiat nulla pariatur. Excepteur sint occaecat cupidatat non proident, sunt in culpa qui officia deserunt mollit anim id est laborum.&lt;/span&gt;&lt;br style=&quot;color: rgb(0, 0, 0); font-size: 11px;&quot;&gt;&lt;div style=&quot;&quot;&gt;&lt;span style=&quot;color: rgb(0, 0, 0); font-size: 11px; background-color: light-dark(#ffffff, var(--ge-dark-color, #121212));&quot;&gt;Sed ut perspiciatis unde omnis iste natus error sit voluptatem accusantium doloremque laudantium, totam rem aperiam, eaque ipsa quae ab illo inventore veritatis et quasi architecto beatae vitae dicta sunt explicabo. Nemo enim ipsam voluptatem quia voluptas sit aspernatur aut odit aut fugit, sed quia consequuntur magni dolores eos qui ratione voluptatem sequi nesciunt. Neque porro quisquam est, qui dolorem ipsum quia dolor sit amet, consectetur, adipisci velit, sed quia non numquam eius modi tempora incidunt ut labore et dolore magnam aliquam quaerat voluptatem. Ut enim ad minima veniam, quis nostrum exercitationem ullam corporis suscipit laboriosam, nisi ut aliquid ex ea commodi consequatur? Quis autem vel eum iure reprehenderit qui in ea voluptate velit esse quam nihil molestiae consequatur, vel illum qui dolorem eum fugiat quo voluptas nulla pariatur?&lt;/span&gt;&lt;/div&gt;" style="strokeWidth=1;shadow=0;dashed=0;align=left;html=1;shape=mxgraph.mockup.containers.rrect;rSize=0;strokeColor=#666666;fontColor=#666666;fontSize=17;verticalAlign=top;whiteSpace=wrap;fillColor=#ffffff;spacingTop=32;fontFamily=Helvetica;labelBackgroundColor=default;" vertex="1" parent="pK-hUQg6xLrgGSAAC2_B-266">
          <mxGeometry x="160" y="107.5" width="680" height="425" as="geometry" />
        </mxCell>
        <mxCell id="pK-hUQg6xLrgGSAAC2_B-236" value="Informazioni attività" style="strokeWidth=1;shadow=0;dashed=0;align=center;html=1;shape=mxgraph.mockup.containers.rrect;rSize=0;fontSize=17;fontColor=#666666;strokeColor=#666666;align=left;spacingLeft=8;fillColor=#ffffff;resizeWidth=1;whiteSpace=wrap;fontFamily=Helvetica;labelBackgroundColor=default;" vertex="1" parent="pK-hUQg6xLrgGSAAC2_B-235">
          <mxGeometry width="680" height="30" relative="1" as="geometry" />
        </mxCell>
        <mxCell id="pK-hUQg6xLrgGSAAC2_B-237" value="" style="shape=ellipse;strokeColor=#008cff;resizable=0;fillColor=none;html=1;fontFamily=Helvetica;fontSize=11;fontColor=default;labelBackgroundColor=default;" vertex="1" parent="pK-hUQg6xLrgGSAAC2_B-236">
          <mxGeometry x="1" y="0.5" width="20" height="20" relative="1" as="geometry">
            <mxPoint x="-25" y="-10" as="offset" />
          </mxGeometry>
        </mxCell>
        <mxCell id="pK-hUQg6xLrgGSAAC2_B-238" value="OK" style="strokeWidth=1;shadow=0;dashed=0;align=center;html=1;shape=mxgraph.mockup.containers.rrect;rSize=0;fontSize=16;fontColor=#666666;strokeColor=#c4c4c4;resizable=0;whiteSpace=wrap;fillColor=#ffffff;fontFamily=Helvetica;labelBackgroundColor=default;" vertex="1" parent="pK-hUQg6xLrgGSAAC2_B-235">
          <mxGeometry x="0.5" y="1" width="120" height="25" relative="1" as="geometry">
            <mxPoint x="-60" y="-33" as="offset" />
          </mxGeometry>
        </mxCell>
        <mxCell id="pK-hUQg6xLrgGSAAC2_B-374" value="Area personale" style="strokeWidth=1;shadow=0;dashed=0;align=center;html=1;shape=mxgraph.mockup.buttons.button;strokeColor=#666666;fontColor=#ffffff;mainText=;buttonStyle=round;fontSize=17;fontStyle=1;fillColor=#008cff;whiteSpace=wrap;" vertex="1" parent="pK-hUQg6xLrgGSAAC2_B-266">
          <mxGeometry x="880" y="115" width="110" height="40" as="geometry" />
        </mxCell>
        <mxCell id="pK-hUQg6xLrgGSAAC2_B-239" style="edgeStyle=orthogonalEdgeStyle;shape=connector;rounded=0;orthogonalLoop=1;jettySize=auto;html=1;strokeColor=light-dark(#008cff, #0089b6);align=center;verticalAlign=middle;fontFamily=Helvetica;fontSize=11;fontColor=default;labelBackgroundColor=default;endArrow=classic;" edge="1" parent="1" source="pK-hUQg6xLrgGSAAC2_B-238" target="qmhfRPb0Hw7Yd657BUEG-1">
          <mxGeometry relative="1" as="geometry" />
        </mxCell>
        <mxCell id="pK-hUQg6xLrgGSAAC2_B-242" value="Chiusura modale" style="edgeLabel;html=1;align=center;verticalAlign=middle;resizable=0;points=[];fontFamily=Helvetica;fontSize=11;fontColor=default;labelBackgroundColor=default;" vertex="1" connectable="0" parent="pK-hUQg6xLrgGSAAC2_B-239">
          <mxGeometry x="0.1341" y="-1" relative="1" as="geometry">
            <mxPoint as="offset" />
          </mxGeometry>
        </mxCell>
        <mxCell id="pK-hUQg6xLrgGSAAC2_B-317" value="" style="strokeWidth=1;shadow=0;dashed=0;align=left;html=1;shape=mxgraph.mockup.containers.browserWindow;rSize=0;strokeColor=#666666;strokeColor2=#008cff;strokeColor3=#c4c4c4;mainText=,;recursiveResize=0;" vertex="1" parent="1">
          <mxGeometry x="50" y="760" width="1000" height="640" as="geometry" />
        </mxCell>
        <mxCell id="pK-hUQg6xLrgGSAAC2_B-318" value="Home" style="strokeWidth=1;shadow=0;dashed=0;align=center;html=1;shape=mxgraph.mockup.containers.anchor;fontSize=17;fontColor=#666666;align=left;whiteSpace=wrap;" vertex="1" parent="pK-hUQg6xLrgGSAAC2_B-317">
          <mxGeometry x="60" y="12" width="110" height="26" as="geometry" />
        </mxCell>
        <mxCell id="pK-hUQg6xLrgGSAAC2_B-319" value="https://rehabrain.eu/#home" style="strokeWidth=1;shadow=0;dashed=0;align=center;html=1;shape=mxgraph.mockup.containers.anchor;rSize=0;fontSize=17;fontColor=#666666;align=left;" vertex="1" parent="pK-hUQg6xLrgGSAAC2_B-317">
          <mxGeometry x="130" y="60" width="250" height="26" as="geometry" />
        </mxCell>
        <mxCell id="pK-hUQg6xLrgGSAAC2_B-320" value="" style="verticalLabelPosition=bottom;shadow=0;dashed=0;align=center;html=1;verticalAlign=top;strokeWidth=1;shape=mxgraph.mockup.graphics.simpleIcon;strokeColor=#999999;" vertex="1" parent="pK-hUQg6xLrgGSAAC2_B-317">
          <mxGeometry y="110" width="50" height="50" as="geometry" />
        </mxCell>
        <mxCell id="pK-hUQg6xLrgGSAAC2_B-321" value="&lt;b style=&quot;&quot;&gt;&lt;font style=&quot;font-size: 30px;&quot;&gt;RehaBrain&lt;/font&gt;&lt;/b&gt;" style="text;html=1;align=left;verticalAlign=middle;whiteSpace=wrap;rounded=0;" vertex="1" parent="pK-hUQg6xLrgGSAAC2_B-317">
          <mxGeometry x="70" y="110" width="150" height="50" as="geometry" />
        </mxCell>
        <mxCell id="pK-hUQg6xLrgGSAAC2_B-323" value="" style="verticalLabelPosition=bottom;shadow=0;dashed=0;align=center;html=1;verticalAlign=top;strokeWidth=1;shape=mxgraph.mockup.markup.line;strokeColor=#999999;" vertex="1" parent="pK-hUQg6xLrgGSAAC2_B-317">
          <mxGeometry y="150" width="1000" height="20" as="geometry" />
        </mxCell>
        <mxCell id="pK-hUQg6xLrgGSAAC2_B-324" value="" style="strokeWidth=1;shadow=0;dashed=0;align=center;html=1;shape=mxgraph.mockup.containers.rrect;rSize=0;strokeColor=#666666;fontColor=#666666;fontSize=17;verticalAlign=top;whiteSpace=wrap;fillColor=#ffffff;spacingTop=32;" vertex="1" parent="pK-hUQg6xLrgGSAAC2_B-317">
          <mxGeometry x="170" y="260" width="450" height="250" as="geometry" />
        </mxCell>
        <mxCell id="pK-hUQg6xLrgGSAAC2_B-331" value="" style="shape=cross;whiteSpace=wrap;html=1;" vertex="1" parent="pK-hUQg6xLrgGSAAC2_B-324">
          <mxGeometry x="395" y="20" width="30" height="30" as="geometry" />
        </mxCell>
        <mxCell id="pK-hUQg6xLrgGSAAC2_B-342" value="Attività 5" style="strokeWidth=1;shadow=0;dashed=0;align=center;html=1;shape=mxgraph.mockup.text.textBox;fontColor=#666666;align=left;fontSize=17;spacingLeft=4;spacingTop=-3;whiteSpace=wrap;strokeColor=#666666;mainText=" vertex="1" parent="pK-hUQg6xLrgGSAAC2_B-324">
          <mxGeometry x="25" y="20" width="220" height="30" as="geometry" />
        </mxCell>
        <mxCell id="pK-hUQg6xLrgGSAAC2_B-343" value="" style="verticalLabelPosition=bottom;shadow=0;dashed=0;align=center;html=1;verticalAlign=top;strokeWidth=1;shape=mxgraph.mockup.misc.help_icon;fontFamily=Helvetica;fontSize=11;fontColor=default;labelBackgroundColor=default;" vertex="1" parent="pK-hUQg6xLrgGSAAC2_B-324">
          <mxGeometry x="214" y="24" width="22" height="22" as="geometry" />
        </mxCell>
        <mxCell id="pK-hUQg6xLrgGSAAC2_B-344" value="Bassa" style="strokeWidth=1;shadow=0;dashed=0;align=center;html=1;shape=mxgraph.mockup.forms.comboBox;strokeColor=#999999;fillColor=#ddeeff;align=left;fillColor2=#aaddff;mainText=;fontColor=#666666;fontSize=17;spacingLeft=3;fontFamily=Helvetica;labelBackgroundColor=default;" vertex="1" parent="pK-hUQg6xLrgGSAAC2_B-324">
          <mxGeometry x="255" y="20" width="130" height="30" as="geometry" />
        </mxCell>
        <mxCell id="pK-hUQg6xLrgGSAAC2_B-345" value="" style="strokeWidth=1;shadow=0;dashed=0;align=center;html=1;shape=mxgraph.mockup.containers.rrect;rSize=0;strokeColor=#666666;fontColor=#666666;fontSize=17;verticalAlign=top;whiteSpace=wrap;fillColor=#ffffff;spacingTop=32;" vertex="1" parent="pK-hUQg6xLrgGSAAC2_B-317">
          <mxGeometry x="740" y="260" width="260" height="380" as="geometry" />
        </mxCell>
        <mxCell id="pK-hUQg6xLrgGSAAC2_B-346" value="Cerca attività..." style="strokeWidth=1;shadow=0;dashed=0;align=center;html=1;shape=mxgraph.mockup.forms.searchBox;strokeColor=#999999;mainText=;strokeColor2=#008cff;fontColor=#666666;fontSize=17;align=left;spacingLeft=3;whiteSpace=wrap;" vertex="1" parent="pK-hUQg6xLrgGSAAC2_B-317">
          <mxGeometry x="740" y="260" width="260" height="30" as="geometry" />
        </mxCell>
        <mxCell id="pK-hUQg6xLrgGSAAC2_B-347" value="Sessione corrente" style="strokeWidth=1;shadow=0;dashed=0;align=center;html=1;shape=mxgraph.mockup.containers.rrect;rSize=0;fontSize=17;fontColor=#666666;strokeColor=#666666;align=left;spacingLeft=8;fillColor=none;resizeWidth=1;whiteSpace=wrap;fontStyle=1" vertex="1" parent="pK-hUQg6xLrgGSAAC2_B-317">
          <mxGeometry width="260" height="30" relative="1" as="geometry">
            <mxPoint x="740" y="230" as="offset" />
          </mxGeometry>
        </mxCell>
        <mxCell id="pK-hUQg6xLrgGSAAC2_B-348" value="Avvia" style="strokeWidth=1;shadow=0;dashed=0;align=center;html=1;shape=mxgraph.mockup.buttons.button;strokeColor=#666666;fontColor=#ffffff;mainText=;buttonStyle=round;fontSize=17;fontStyle=1;fillColor=#008cff;whiteSpace=wrap;" vertex="1" parent="pK-hUQg6xLrgGSAAC2_B-317">
          <mxGeometry x="820" y="305" width="100" height="30" as="geometry" />
        </mxCell>
        <mxCell id="pK-hUQg6xLrgGSAAC2_B-349" value="" style="rounded=0;whiteSpace=wrap;html=1;" vertex="1" parent="pK-hUQg6xLrgGSAAC2_B-317">
          <mxGeometry x="870" y="361.25" width="30" height="7.5" as="geometry" />
        </mxCell>
        <mxCell id="pK-hUQg6xLrgGSAAC2_B-350" value="attività 5" style="strokeWidth=1;shadow=0;dashed=0;align=center;html=1;shape=mxgraph.mockup.forms.searchBox;strokeColor=#999999;mainText=;strokeColor2=#008cff;fontColor=#666666;fontSize=17;align=left;spacingLeft=3;whiteSpace=wrap;" vertex="1" parent="pK-hUQg6xLrgGSAAC2_B-317">
          <mxGeometry x="170" y="230" width="450" height="30" as="geometry" />
        </mxCell>
        <mxCell id="pK-hUQg6xLrgGSAAC2_B-351" value="Attività 3&amp;nbsp;(B)" style="strokeWidth=1;shadow=0;dashed=0;align=center;html=1;shape=mxgraph.mockup.text.textBox;fontColor=#666666;align=left;fontSize=17;spacingLeft=4;spacingTop=-3;whiteSpace=wrap;strokeColor=#666666;mainText=" vertex="1" parent="pK-hUQg6xLrgGSAAC2_B-317">
          <mxGeometry x="750" y="390" width="110" height="30" as="geometry" />
        </mxCell>
        <mxCell id="pK-hUQg6xLrgGSAAC2_B-352" value="Attività 2 (M)" style="strokeWidth=1;shadow=0;dashed=0;align=center;html=1;shape=mxgraph.mockup.text.textBox;fontColor=#666666;align=left;fontSize=17;spacingLeft=4;spacingTop=-3;whiteSpace=wrap;strokeColor=#666666;mainText=" vertex="1" parent="pK-hUQg6xLrgGSAAC2_B-317">
          <mxGeometry x="750" y="350" width="110" height="30" as="geometry" />
        </mxCell>
        <mxCell id="pK-hUQg6xLrgGSAAC2_B-353" value="Attività 1 (A)" style="strokeWidth=1;shadow=0;dashed=0;align=center;html=1;shape=mxgraph.mockup.text.textBox;fontColor=#666666;align=left;fontSize=17;spacingLeft=4;spacingTop=-3;whiteSpace=wrap;strokeColor=#666666;mainText=" vertex="1" parent="pK-hUQg6xLrgGSAAC2_B-317">
          <mxGeometry x="750" y="430" width="110" height="30" as="geometry" />
        </mxCell>
        <mxCell id="pK-hUQg6xLrgGSAAC2_B-354" value="" style="shape=singleArrow;direction=north;whiteSpace=wrap;html=1;" vertex="1" parent="pK-hUQg6xLrgGSAAC2_B-317">
          <mxGeometry x="910" y="350" width="20" height="30" as="geometry" />
        </mxCell>
        <mxCell id="pK-hUQg6xLrgGSAAC2_B-355" value="" style="shape=singleArrow;direction=north;whiteSpace=wrap;html=1;rotation=-180;" vertex="1" parent="pK-hUQg6xLrgGSAAC2_B-317">
          <mxGeometry x="940" y="350" width="20" height="30" as="geometry" />
        </mxCell>
        <mxCell id="pK-hUQg6xLrgGSAAC2_B-356" value="&lt;font style=&quot;font-size: 20px;&quot;&gt;3&lt;/font&gt;" style="text;html=1;align=center;verticalAlign=middle;whiteSpace=wrap;rounded=0;" vertex="1" parent="pK-hUQg6xLrgGSAAC2_B-317">
          <mxGeometry x="970" y="350" width="30" height="30" as="geometry" />
        </mxCell>
        <mxCell id="pK-hUQg6xLrgGSAAC2_B-357" value="" style="rounded=0;whiteSpace=wrap;html=1;" vertex="1" parent="pK-hUQg6xLrgGSAAC2_B-317">
          <mxGeometry x="870" y="401.25" width="30" height="7.5" as="geometry" />
        </mxCell>
        <mxCell id="pK-hUQg6xLrgGSAAC2_B-358" value="" style="shape=singleArrow;direction=north;whiteSpace=wrap;html=1;" vertex="1" parent="pK-hUQg6xLrgGSAAC2_B-317">
          <mxGeometry x="910" y="390" width="20" height="30" as="geometry" />
        </mxCell>
        <mxCell id="pK-hUQg6xLrgGSAAC2_B-359" value="" style="shape=singleArrow;direction=north;whiteSpace=wrap;html=1;rotation=-180;" vertex="1" parent="pK-hUQg6xLrgGSAAC2_B-317">
          <mxGeometry x="940" y="390" width="20" height="30" as="geometry" />
        </mxCell>
        <mxCell id="pK-hUQg6xLrgGSAAC2_B-360" value="&lt;font style=&quot;font-size: 20px;&quot;&gt;2&lt;/font&gt;" style="text;html=1;align=center;verticalAlign=middle;whiteSpace=wrap;rounded=0;" vertex="1" parent="pK-hUQg6xLrgGSAAC2_B-317">
          <mxGeometry x="970" y="390" width="30" height="30" as="geometry" />
        </mxCell>
        <mxCell id="pK-hUQg6xLrgGSAAC2_B-361" value="" style="rounded=0;whiteSpace=wrap;html=1;" vertex="1" parent="pK-hUQg6xLrgGSAAC2_B-317">
          <mxGeometry x="870" y="441.25" width="30" height="7.5" as="geometry" />
        </mxCell>
        <mxCell id="pK-hUQg6xLrgGSAAC2_B-362" value="" style="shape=singleArrow;direction=north;whiteSpace=wrap;html=1;" vertex="1" parent="pK-hUQg6xLrgGSAAC2_B-317">
          <mxGeometry x="910" y="430" width="20" height="30" as="geometry" />
        </mxCell>
        <mxCell id="pK-hUQg6xLrgGSAAC2_B-363" value="" style="shape=singleArrow;direction=north;whiteSpace=wrap;html=1;rotation=-180;" vertex="1" parent="pK-hUQg6xLrgGSAAC2_B-317">
          <mxGeometry x="940" y="430" width="20" height="30" as="geometry" />
        </mxCell>
        <mxCell id="pK-hUQg6xLrgGSAAC2_B-364" value="&lt;font style=&quot;font-size: 20px;&quot;&gt;1&lt;/font&gt;" style="text;html=1;align=center;verticalAlign=middle;whiteSpace=wrap;rounded=0;" vertex="1" parent="pK-hUQg6xLrgGSAAC2_B-317">
          <mxGeometry x="970" y="430" width="30" height="30" as="geometry" />
        </mxCell>
        <mxCell id="pK-hUQg6xLrgGSAAC2_B-365" value="" style="endArrow=none;dashed=1;html=1;rounded=0;dashPattern=1 4;" edge="1" parent="pK-hUQg6xLrgGSAAC2_B-317">
          <mxGeometry width="50" height="50" relative="1" as="geometry">
            <mxPoint x="750" y="480" as="sourcePoint" />
            <mxPoint x="830" y="480" as="targetPoint" />
          </mxGeometry>
        </mxCell>
        <mxCell id="pK-hUQg6xLrgGSAAC2_B-366" value="" style="endArrow=none;dashed=1;html=1;rounded=0;dashPattern=1 4;" edge="1" parent="pK-hUQg6xLrgGSAAC2_B-317">
          <mxGeometry width="50" height="50" relative="1" as="geometry">
            <mxPoint x="750" y="500" as="sourcePoint" />
            <mxPoint x="830" y="500" as="targetPoint" />
          </mxGeometry>
        </mxCell>
        <mxCell id="pK-hUQg6xLrgGSAAC2_B-367" value="" style="endArrow=none;dashed=1;html=1;rounded=0;dashPattern=1 4;" edge="1" parent="pK-hUQg6xLrgGSAAC2_B-317">
          <mxGeometry width="50" height="50" relative="1" as="geometry">
            <mxPoint x="750" y="490" as="sourcePoint" />
            <mxPoint x="830" y="490" as="targetPoint" />
          </mxGeometry>
        </mxCell>
        <mxCell id="pK-hUQg6xLrgGSAAC2_B-372" value="Area personale" style="strokeWidth=1;shadow=0;dashed=0;align=center;html=1;shape=mxgraph.mockup.buttons.button;strokeColor=#666666;fontColor=#ffffff;mainText=;buttonStyle=round;fontSize=17;fontStyle=1;fillColor=#008cff;whiteSpace=wrap;" vertex="1" parent="pK-hUQg6xLrgGSAAC2_B-317">
          <mxGeometry x="880" y="115" width="110" height="40" as="geometry" />
        </mxCell>
        <mxCell id="pK-hUQg6xLrgGSAAC2_B-369" style="edgeStyle=orthogonalEdgeStyle;shape=connector;rounded=0;orthogonalLoop=1;jettySize=auto;html=1;strokeColor=light-dark(#008cff, #0089b6);align=center;verticalAlign=middle;fontFamily=Helvetica;fontSize=11;fontColor=default;labelBackgroundColor=default;endArrow=classic;" edge="1" parent="1" source="pK-hUQg6xLrgGSAAC2_B-5" target="pK-hUQg6xLrgGSAAC2_B-317">
          <mxGeometry relative="1" as="geometry">
            <Array as="points">
              <mxPoint x="710" y="285" />
            </Array>
          </mxGeometry>
        </mxCell>
        <mxCell id="pK-hUQg6xLrgGSAAC2_B-370" value="Ricerca attività" style="edgeLabel;html=1;align=center;verticalAlign=middle;resizable=0;points=[];fontFamily=Helvetica;fontSize=11;fontColor=default;labelBackgroundColor=default;" vertex="1" connectable="0" parent="pK-hUQg6xLrgGSAAC2_B-369">
          <mxGeometry x="0.0803" y="-6" relative="1" as="geometry">
            <mxPoint as="offset" />
          </mxGeometry>
        </mxCell>
      </root>
    </mxGraphModel>
  </diagram>
</mxfile>
